{"asset":{"version":"2.0","generator":"Blockbench 4.12.3 glTF exporter"},"scenes":[{"nodes":[26],"name":"blockbench_export"}],"scene":0,"nodes":[{"name":"cube","mesh":0},{"name":"cube","mesh":1},{"name":"cube","mesh":2},{"translation":[0,-0.34375,0],"name":"main","children":[0,1,2]},{"translation":[0,0,-0.25],"name":"cube","mesh":3},{"rotation":[0,0,-0.7071067811865475,0.7071067811865476],"translation":[-0.03125,0.34375,0],"name":"cube","mesh":4},{"name":"cube","mesh":5},{"translation":[0,-0.34375,0],"name":"tlok","children":[4,5,6]},{"translation":[0,0.21875,0.5],"name":"strzykawka","children":[3,7]},{"name":"cube","mesh":6},{"translation":[-0.0625,0.3125,-0.3125],"name":"spring","children":[9]},{"rotation":[0.10886687485196457,0,0,0.9940563382223196],"translation":[0,-0.4375,0.375],"name":"cube","mesh":7},{"translation":[0,0.25,-0.4375],"name":"trigger","children":[11]},{"translation":[0,0.1875,0],"name":"cube","mesh":8},{"translation":[0,0.1875,0],"name":"cube","mesh":9},{"rotation":[0.1521233861899167,0,0,0.9883615104677607],"translation":[0,0.0625,-0.0625],"name":"cube","mesh":10},{"translation":[0,0.1875,0],"name":"cube","mesh":11},{"translation":[0,0.1875,0],"name":"cube","mesh":12},{"translation":[0,0.1875,0],"name":"cube","mesh":13},{"translation":[0,0.25,0],"name":"cube","mesh":14},{"translation":[0,0.25,0],"name":"cube","mesh":15},{"translation":[0,0.25,0],"name":"cube","mesh":16},{"translation":[0,0.25,0],"name":"cube","mesh":17},{"name":"casing","children":[13,14,15,16,17,18,19,20,21,22]},{"translation":[0,-0.125,0.5],"name":"pistolet","children":[10,12,23]},{"translation":[0,0.3125,-0.375],"name":"wholeModel","children":[8,24]},{"children":[25]}],"bufferViews":[{"buffer":0,"byteOffset":0,"byteLength":288,"target":34962,"byteStride":12},{"buffer":0,"byteOffset":288,"byteLength":288,"target":34962,"byteStride":12},{"buffer":0,"byteOffset":576,"byteLength":192,"target":34962,"byteStride":8},{"buffer":0,"byteOffset":768,"byteLength":72,"target":34963},{"buffer":0,"byteOffset":840,"byteLength":288,"target":34962,"byteStride":12},{"buffer":0,"byteOffset":1128,"byteLength":288,"target":34962,"byteStride":12},{"buffer":0,"byteOffset":1416,"byteLength":192,"target":34962,"byteStride":8},{"buffer":0,"byteOffset":1608,"byteLength":72,"target":34963},{"buffer":0,"byteOffset":1680,"byteLength":288,"target":34962,"byteStride":12},{"buffer":0,"byteOffset":1968,"byteLength":288,"target":34962,"byteStride":12},{"buffer":0,"byteOffset":2256,"byteLength":192,"target":34962,"byteStride":8},{"buffer":0,"byteOffset":2448,"byteLength":72,"target":34963},{"buffer":0,"byteOffset":2520,"byteLength":288,"target":34962,"byteStride":12},{"buffer":0,"byteOffset":2808,"byteLength":288,"target":34962,"byteStride":12},{"buffer":0,"byteOffset":3096,"byteLength":192,"target":34962,"byteStride":8},{"buffer":0,"byteOffset":3288,"byteLength":72,"target":34963},{"buffer":0,"byteOffset":3360,"byteLength":288,"target":34962,"byteStride":12},{"buffer":0,"byteOffset":3648,"byteLength":288,"target":34962,"byteStride":12},{"buffer":0,"byteOffset":3936,"byteLength":192,"target":34962,"byteStride":8},{"buffer":0,"byteOffset":4128,"byteLength":72,"target":34963},{"buffer":0,"byteOffset":4200,"byteLength":288,"target":34962,"byteStride":12},{"buffer":0,"byteOffset":4488,"byteLength":288,"target":34962,"byteStride":12},{"buffer":0,"byteOffset":4776,"byteLength":192,"target":34962,"byteStride":8},{"buffer":0,"byteOffset":4968,"byteLength":72,"target":34963},{"buffer":0,"byteOffset":5040,"byteLength":288,"target":34962,"byteStride":12},{"buffer":0,"byteOffset":5328,"byteLength":288,"target":34962,"byteStride":12},{"buffer":0,"byteOffset":5616,"byteLength":192,"target":34962,"byteStride":8},{"buffer":0,"byteOffset":5808,"byteLength":72,"target":34963},{"buffer":0,"byteOffset":5880,"byteLength":288,"target":34962,"byteStride":12},{"buffer":0,"byteOffset":6168,"byteLength":288,"target":34962,"byteStride":12},{"buffer":0,"byteOffset":6456,"byteLength":192,"target":34962,"byteStride":8},{"buffer":0,"byteOffset":6648,"byteLength":72,"target":34963},{"buffer":0,"byteOffset":6720,"byteLength":288,"target":34962,"byteStride":12},{"buffer":0,"byteOffset":7008,"byteLength":288,"target":34962,"byteStride":12},{"buffer":0,"byteOffset":7296,"byteLength":192,"target":34962,"byteStride":8},{"buffer":0,"byteOffset":7488,"byteLength":72,"target":34963},{"buffer":0,"byteOffset":7560,"byteLength":288,"target":34962,"byteStride":12},{"buffer":0,"byteOffset":7848,"byteLength":288,"target":34962,"byteStride":12},{"buffer":0,"byteOffset":8136,"byteLength":192,"target":34962,"byteStride":8},{"buffer":0,"byteOffset":8328,"byteLength":72,"target":34963},{"buffer":0,"byteOffset":8400,"byteLength":288,"target":34962,"byteStride":12},{"buffer":0,"byteOffset":8688,"byteLength":288,"target":34962,"byteStride":12},{"buffer":0,"byteOffset":8976,"byteLength":192,"target":34962,"byteStride":8},{"buffer":0,"byteOffset":9168,"byteLength":72,"target":34963},{"buffer":0,"byteOffset":9240,"byteLength":288,"target":34962,"byteStride":12},{"buffer":0,"byteOffset":9528,"byteLength":288,"target":34962,"byteStride":12},{"buffer":0,"byteOffset":9816,"byteLength":192,"target":34962,"byteStride":8},{"buffer":0,"byteOffset":10008,"byteLength":72,"target":34963},{"buffer":0,"byteOffset":10080,"byteLength":288,"target":34962,"byteStride":12},{"buffer":0,"byteOffset":10368,"byteLength":288,"target":34962,"byteStride":12},{"buffer":0,"byteOffset":10656,"byteLength":192,"target":34962,"byteStride":8},{"buffer":0,"byteOffset":10848,"byteLength":72,"target":34963},{"buffer":0,"byteOffset":10920,"byteLength":288,"target":34962,"byteStride":12},{"buffer":0,"byteOffset":11208,"byteLength":288,"target":34962,"byteStride":12},{"buffer":0,"byteOffset":11496,"byteLength":192,"target":34962,"byteStride":8},{"buffer":0,"byteOffset":11688,"byteLength":72,"target":34963},{"buffer":0,"byteOffset":11760,"byteLength":288,"target":34962,"byteStride":12},{"buffer":0,"byteOffset":12048,"byteLength":288,"target":34962,"byteStride":12},{"buffer":0,"byteOffset":12336,"byteLength":192,"target":34962,"byteStride":8},{"buffer":0,"byteOffset":12528,"byteLength":72,"target":34963},{"buffer":0,"byteOffset":12600,"byteLength":288,"target":34962,"byteStride":12},{"buffer":0,"byteOffset":12888,"byteLength":288,"target":34962,"byteStride":12},{"buffer":0,"byteOffset":13176,"byteLength":192,"target":34962,"byteStride":8},{"buffer":0,"byteOffset":13368,"byteLength":72,"target":34963},{"buffer":0,"byteOffset":13440,"byteLength":288,"target":34962,"byteStride":12},{"buffer":0,"byteOffset":13728,"byteLength":288,"target":34962,"byteStride":12},{"buffer":0,"byteOffset":14016,"byteLength":192,"target":34962,"byteStride":8},{"buffer":0,"byteOffset":14208,"byteLength":72,"target":34963},{"buffer":0,"byteOffset":14280,"byteLength":288,"target":34962,"byteStride":12},{"buffer":0,"byteOffset":14568,"byteLength":288,"target":34962,"byteStride":12},{"buffer":0,"byteOffset":14856,"byteLength":192,"target":34962,"byteStride":8},{"buffer":0,"byteOffset":15048,"byteLength":72,"target":34963},{"buffer":0,"byteOffset":15120,"byteLength":8},{"buffer":0,"byteOffset":15128,"byteLength":24},{"buffer":0,"byteOffset":15152,"byteLength":8},{"buffer":0,"byteOffset":15160,"byteLength":24},{"buffer":0,"byteOffset":15184,"byteLength":8},{"buffer":0,"byteOffset":15192,"byteLength":24},{"buffer":0,"byteOffset":15216,"byteLength":32},{"buffer":0,"byteOffset":15248,"byteLength":96},{"buffer":0,"byteOffset":15344,"byteLength":12},{"buffer":0,"byteOffset":15356,"byteLength":36},{"buffer":0,"byteOffset":15392,"byteLength":16},{"buffer":0,"byteOffset":15408,"byteLength":64},{"buffer":0,"byteOffset":15472,"byteLength":16},{"buffer":0,"byteOffset":15488,"byteLength":48},{"buffer":0,"byteOffset":15536,"byteLength":16},{"buffer":0,"byteOffset":15552,"byteLength":48},{"buffer":0,"byteOffset":15600,"byteLength":12},{"buffer":0,"byteOffset":15612,"byteLength":36},{"buffer":0,"byteOffset":15648,"byteLength":4},{"buffer":0,"byteOffset":15652,"byteLength":12},{"buffer":0,"byteOffset":15664,"byteLength":12},{"buffer":0,"byteOffset":15676,"byteLength":36},{"buffer":0,"byteOffset":15712,"byteLength":12},{"buffer":0,"byteOffset":15724,"byteLength":36},{"buffer":0,"byteOffset":15760,"byteLength":12},{"buffer":0,"byteOffset":15772,"byteLength":48},{"buffer":0,"byteOffset":15820,"byteLength":16},{"buffer":0,"byteOffset":15836,"byteLength":48},{"buffer":0,"byteOffset":15884,"byteLength":72},{"buffer":0,"byteOffset":15956,"byteLength":288},{"buffer":0,"byteOffset":16244,"byteLength":36},{"buffer":0,"byteOffset":16280,"byteLength":108}],"buffers":[{"byteLength":16388,"uri":"data:application/octet-stream;base64,"}],"accessors":[{"bufferView":0,"componentType":5126,"count":24,"max":[-0.02500000037252903,0.3499999940395355,0.4375],"min":[-0.03750000149011612,0.3375000059604645,0.25],"type":"VEC3"},{"bufferView":1,"componentType":5126,"count":24,"max":[1,1,1],"min":[-1,-1,-1],"type":"VEC3"},{"bufferView":2,"componentType":5126,"count":24,"max":[0.6875,0.6875],"min":[0.375,0],"type":"VEC2"},{"bufferView":3,"componentType":5123,"count":36,"max":[23],"min":[0],"type":"SCALAR"},{"bufferView":4,"componentType":5126,"count":24,"max":[0.03125,0.40625,-0.04374999925494194],"min":[-0.09375,0.28125,-0.0625],"type":"VEC3"},{"bufferView":5,"componentType":5126,"count":24,"max":[1,1,1],"min":[-1,-1,-1],"type":"VEC3"},{"bufferView":6,"componentType":5126,"count":24,"max":[0.6875,0.6875],"min":[0.125,0],"type":"VEC2"},{"bufferView":7,"componentType":5123,"count":36,"max":[23],"min":[0],"type":"SCALAR"},{"bufferView":8,"componentType":5126,"count":24,"max":[0,0.375,0.3125],"min":[-0.0625,0.3125,-0.0625],"type":"VEC3"},{"bufferView":9,"componentType":5126,"count":24,"max":[1,1,1],"min":[-1,-1,-1],"type":"VEC3"},{"bufferView":10,"componentType":5126,"count":24,"max":[0.625,0.625],"min":[0,0],"type":"VEC2"},{"bufferView":11,"componentType":5123,"count":36,"max":[23],"min":[0],"type":"SCALAR"},{"bufferView":12,"componentType":5126,"count":24,"max":[0.015625,0.390625,-0.04374999925494194],"min":[-0.078125,0.296875,-0.0625],"type":"VEC3"},{"bufferView":13,"componentType":5126,"count":24,"max":[1,1,1],"min":[-1,-1,-1],"type":"VEC3"},{"bufferView":14,"componentType":5126,"count":24,"max":[0.6875,0.6875],"min":[0,0.125],"type":"VEC2"},{"bufferView":15,"componentType":5123,"count":36,"max":[23],"min":[0],"type":"SCALAR"},{"bufferView":16,"componentType":5126,"count":24,"max":[0.0062500000931322575,0.02812499925494194,0],"min":[-0.0062500000931322575,-0.02812499925494194,-0.3125],"type":"VEC3"},{"bufferView":17,"componentType":5126,"count":24,"max":[1,1,1],"min":[-1,-1,-1],"type":"VEC3"},{"bufferView":18,"componentType":5126,"count":24,"max":[0.6875,0.6875],"min":[0.0625,0.25],"type":"VEC2"},{"bufferView":19,"componentType":5123,"count":36,"max":[23],"min":[0],"type":"SCALAR"},{"bufferView":20,"componentType":5126,"count":24,"max":[-0.02500000037252903,0.37187498807907104,0],"min":[-0.03750000149011612,0.31562501192092896,-0.3125],"type":"VEC3"},{"bufferView":21,"componentType":5126,"count":24,"max":[1,1,1],"min":[-1,-1,-1],"type":"VEC3"},{"bufferView":22,"componentType":5126,"count":24,"max":[0.625,0.6875],"min":[0,0.125],"type":"VEC2"},{"bufferView":23,"componentType":5123,"count":36,"max":[23],"min":[0],"type":"SCALAR"},{"bufferView":24,"componentType":5126,"count":24,"max":[0.0625,0.0625,-0.0625],"min":[0,0,-0.125],"type":"VEC3"},{"bufferView":25,"componentType":5126,"count":24,"max":[1,1,1],"min":[-1,-1,-1],"type":"VEC3"},{"bufferView":26,"componentType":5126,"count":24,"max":[0.1875,0.1875],"min":[0,0],"type":"VEC2"},{"bufferView":27,"componentType":5123,"count":36,"max":[23],"min":[0],"type":"SCALAR"},{"bufferView":28,"componentType":5126,"count":24,"max":[-0.0062500000931322575,0.375,-0.34375],"min":[-0.05624999850988388,0.25,-0.4375],"type":"VEC3"},{"bufferView":29,"componentType":5126,"count":24,"max":[1,1,1],"min":[-1,-1,-1],"type":"VEC3"},{"bufferView":30,"componentType":5126,"count":24,"max":[0.25,0.25],"min":[0,0],"type":"VEC2"},{"bufferView":31,"componentType":5123,"count":36,"max":[23],"min":[0],"type":"SCALAR"},{"bufferView":32,"componentType":5126,"count":24,"max":[0.0625,0.125,0.375],"min":[-0.125,0.0625,-0.3125],"type":"VEC3"},{"bufferView":33,"componentType":5126,"count":24,"max":[1,1,1],"min":[-1,-1,-1],"type":"VEC3"},{"bufferView":34,"componentType":5126,"count":24,"max":[0.59375,0.34375],"min":[0,0],"type":"VEC2"},{"bufferView":35,"componentType":5123,"count":36,"max":[23],"min":[0],"type":"SCALAR"},{"bufferView":36,"componentType":5126,"count":24,"max":[0.0625,0.25,-0.3125],"min":[-0.125,0.0625,-0.5],"type":"VEC3"},{"bufferView":37,"componentType":5126,"count":24,"max":[1,1,1],"min":[-1,-1,-1],"type":"VEC3"},{"bufferView":38,"componentType":5126,"count":24,"max":[0.5,0.4375],"min":[0,0.125],"type":"VEC2"},{"bufferView":39,"componentType":5123,"count":36,"max":[23],"min":[0],"type":"SCALAR"},{"bufferView":40,"componentType":5126,"count":24,"max":[0,0.125,-0.375],"min":[-0.0625,-0.25,-0.5],"type":"VEC3"},{"bufferView":41,"componentType":5126,"count":24,"max":[1,1,1],"min":[-1,-1,-1],"type":"VEC3"},{"bufferView":42,"componentType":5126,"count":24,"max":[0.4375,0.5625],"min":[0,0],"type":"VEC2"},{"bufferView":43,"componentType":5123,"count":36,"max":[23],"min":[0],"type":"SCALAR"},{"bufferView":44,"componentType":5126,"count":24,"max":[0.0625,0.25,0.375],"min":[-0.125,0.21875,0.3125],"type":"VEC3"},{"bufferView":45,"componentType":5126,"count":24,"max":[1,1,1],"min":[-1,-1,-1],"type":"VEC3"},{"bufferView":46,"componentType":5126,"count":24,"max":[0.5,0.46875],"min":[0.3125,0.28125],"type":"VEC2"},{"bufferView":47,"componentType":5123,"count":36,"max":[23],"min":[0],"type":"SCALAR"},{"bufferView":48,"componentType":5126,"count":24,"max":[0,0.25,0.3125],"min":[-0.0625,0.21875,-0.3125],"type":"VEC3"},{"bufferView":49,"componentType":5126,"count":24,"max":[1,1,1],"min":[-1,-1,-1],"type":"VEC3"},{"bufferView":50,"componentType":5126,"count":24,"max":[0.5625,0.46875],"min":[0.25,0.0625],"type":"VEC2"},{"bufferView":51,"componentType":5123,"count":36,"max":[23],"min":[0],"type":"SCALAR"},{"bufferView":52,"componentType":5126,"count":24,"max":[-0.015625,0.3125,0.34375],"min":[-0.046875,0.25,0.3125],"type":"VEC3"},{"bufferView":53,"componentType":5126,"count":24,"max":[1,1,1],"min":[-1,-1,-1],"type":"VEC3"},{"bufferView":54,"componentType":5126,"count":24,"max":[0.5,0.5],"min":[0.34375,0.375],"type":"VEC2"},{"bufferView":55,"componentType":5123,"count":36,"max":[23],"min":[0],"type":"SCALAR"},{"bufferView":56,"componentType":5126,"count":24,"max":[-0.09375,0.1875,0.375],"min":[-0.125,0.0625,0.3125],"type":"VEC3"},{"bufferView":57,"componentType":5126,"count":24,"max":[1,1,1],"min":[-1,-1,-1],"type":"VEC3"},{"bufferView":58,"componentType":5126,"count":24,"max":[0.5,0.5],"min":[0.03125,0.40625],"type":"VEC2"},{"bufferView":59,"componentType":5123,"count":36,"max":[23],"min":[0],"type":"SCALAR"},{"bufferView":60,"componentType":5126,"count":24,"max":[0.03125,0.25,-0.34375],"min":[0,0.1875,-0.375],"type":"VEC3"},{"bufferView":61,"componentType":5126,"count":24,"max":[1,1,1],"min":[-1,-1,-1],"type":"VEC3"},{"bufferView":62,"componentType":5126,"count":24,"max":[0.5,0.53125],"min":[0,0.4375],"type":"VEC2"},{"bufferView":63,"componentType":5123,"count":36,"max":[23],"min":[0],"type":"SCALAR"},{"bufferView":64,"componentType":5126,"count":24,"max":[0.0625,0.1875,0.375],"min":[0.03125,0.0625,0.3125],"type":"VEC3"},{"bufferView":65,"componentType":5126,"count":24,"max":[1,1,1],"min":[-1,-1,-1],"type":"VEC3"},{"bufferView":66,"componentType":5126,"count":24,"max":[0.53125,0.53125],"min":[0.125,0.125],"type":"VEC2"},{"bufferView":67,"componentType":5123,"count":36,"max":[23],"min":[0],"type":"SCALAR"},{"bufferView":68,"componentType":5126,"count":24,"max":[-0.0625,0.25,-0.34375],"min":[-0.09375,0.1875,-0.375],"type":"VEC3"},{"bufferView":69,"componentType":5126,"count":24,"max":[1,1,1],"min":[-1,-1,-1],"type":"VEC3"},{"bufferView":70,"componentType":5126,"count":24,"max":[0.53125,0.53125],"min":[0.15625,0.15625],"type":"VEC2"},{"bufferView":71,"componentType":5123,"count":36,"max":[23],"min":[0],"type":"SCALAR"},{"bufferView":72,"componentType":5126,"count":2,"max":[0.0833333358168602],"min":[0],"type":"SCALAR"},{"bufferView":73,"componentType":5126,"count":2,"max":[0,0.21875,0.8125],"min":[0,0.21875,0.5],"type":"VEC3"},{"bufferView":74,"componentType":5126,"count":2,"max":[0.0833333358168602],"min":[0],"type":"SCALAR"},{"bufferView":75,"componentType":5126,"count":2,"max":[1,1,1],"min":[0,0,0],"type":"VEC3"},{"bufferView":76,"componentType":5126,"count":2,"max":[0.0416666679084301],"min":[0],"type":"SCALAR"},{"bufferView":77,"componentType":5126,"count":2,"max":[-0.0625,0.3125,-0.5],"min":[-0.0625,0.3125,-1.1875],"type":"VEC3"},{"bufferView":78,"componentType":5126,"count":8,"max":[0.5833333134651184],"min":[0],"type":"SCALAR"},{"bufferView":79,"componentType":5126,"count":8,"max":[1,1,-1.2000000476837158],"min":[1,1,-14],"type":"VEC3"},{"bufferView":80,"componentType":5126,"count":3,"max":[0.2916666567325592],"min":[0],"type":"SCALAR"},{"bufferView":81,"componentType":5126,"count":3,"max":[0,0.25,-0.4375],"min":[0,0.25,-0.5],"type":"VEC3"},{"bufferView":82,"componentType":5126,"count":4,"max":[0.3333333432674408],"min":[0],"type":"SCALAR"},{"bufferView":83,"componentType":5126,"count":4,"max":[0,0,0,1],"min":[-0.04361938685178757,0,0,0.9990482330322266],"type":"VEC4"},{"bufferView":84,"componentType":5126,"count":4,"max":[0.3333333432674408],"min":[0],"type":"SCALAR"},{"bufferView":85,"componentType":5126,"count":4,"max":[0,0.3125,-0.375],"min":[0,0.3125,-0.4375],"type":"VEC3"},{"bufferView":86,"componentType":5126,"count":4,"max":[1.5416666269302368],"min":[0],"type":"SCALAR"},{"bufferView":87,"componentType":5126,"count":4,"max":[0,0.21875,1.3125],"min":[0,0.21875,0.4375],"type":"VEC3"},{"bufferView":88,"componentType":5126,"count":3,"max":[0.9583333134651184],"min":[0],"type":"SCALAR"},{"bufferView":89,"componentType":5126,"count":3,"max":[1,1,1],"min":[0,0,0],"type":"VEC3"},{"bufferView":90,"componentType":5126,"count":1,"max":[0],"min":[0],"type":"SCALAR"},{"bufferView":91,"componentType":5126,"count":1,"max":[0,-0.34375,0],"min":[0,-0.34375,0],"type":"VEC3"},{"bufferView":92,"componentType":5126,"count":3,"max":[1.5416666269302368],"min":[0],"type":"SCALAR"},{"bufferView":93,"componentType":5126,"count":3,"max":[-0.0625,0.3125,-0.4375],"min":[-0.0625,0.3125,-1.1875],"type":"VEC3"},{"bufferView":94,"componentType":5126,"count":3,"max":[1.5416666269302368],"min":[0],"type":"SCALAR"},{"bufferView":95,"componentType":5126,"count":3,"max":[1,1,-1],"min":[1,1,-13.399999618530273],"type":"VEC3"},{"bufferView":96,"componentType":5126,"count":3,"max":[1.5416666269302368],"min":[1.375],"type":"SCALAR"},{"bufferView":97,"componentType":5126,"count":3,"max":[0.13052618503570557,0,0,1],"min":[0,0,0,0.9914448857307434],"type":"VEC4"},{"bufferView":98,"componentType":5126,"count":4,"max":[1.5416666269302368],"min":[0],"type":"SCALAR"},{"bufferView":99,"componentType":5126,"count":4,"max":[0,0.26875001192092896,-0.4375],"min":[0,0.25,-0.4375],"type":"VEC3"},{"bufferView":100,"componentType":5126,"count":18,"max":[2.2083332538604736],"min":[0],"type":"SCALAR"},{"bufferView":101,"componentType":5126,"count":18,"max":[0.007037467323243618,0.591309666633606,0.005160084459930658,1],"min":[-0.007037467323243618,0,-0.005160084459930658,0.8064138889312744],"type":"VEC4"},{"bufferView":102,"componentType":5126,"count":9,"max":[2.2083332538604736],"min":[0],"type":"SCALAR"},{"bufferView":103,"componentType":5126,"count":9,"max":[0,0.3125,-0.1875],"min":[-0.5,0.3125,-0.375],"type":"VEC3"}],"materials":[{"pbrMetallicRoughness":{"metallicFactor":0,"roughnessFactor":1,"baseColorTexture":{"index":0}},"alphaMode":"MASK","alphaCutoff":0.05,"doubleSided":true},{"pbrMetallicRoughness":{"metallicFactor":0,"roughnessFactor":1,"baseColorTexture":{"index":1}},"alphaMode":"MASK","alphaCutoff":0.05,"doubleSided":true},{"pbrMetallicRoughness":{"metallicFactor":0,"roughnessFactor":1,"baseColorTexture":{"index":2}},"alphaMode":"MASK","alphaCutoff":0.05,"doubleSided":true},{"pbrMetallicRoughness":{"metallicFactor":0,"roughnessFactor":1,"baseColorTexture":{"index":3}},"alphaMode":"MASK","alphaCutoff":0.05,"doubleSided":true}],"textures":[{"sampler":0,"source":0,"name":"strzykawka.png"},{"sampler":1,"source":1,"name":"spring"},{"sampler":2,"source":2,"name":"trigger"},{"sampler":3,"source":3,"name":"casing"}],"samplers":[{"magFilter":9728,"minFilter":9728,"wrapS":33071,"wrapT":33071},{"magFilter":9728,"minFilter":9728,"wrapS":33071,"wrapT":33071},{"magFilter":9728,"minFilter":9728,"wrapS":33071,"wrapT":33071},{"magFilter":9728,"minFilter":9728,"wrapS":33071,"wrapT":33071}],"images":[{"mimeType":"image/png","uri":"data:image/png;base64,"},{"mimeType":"image/png","uri":"data:image/png;base64,"},{"mimeType":"image/png","uri":"data:image/png;base64,"},{"mimeType":"image/png","uri":"data:image/png;base64,"}],"meshes":[{"primitives":[{"mode":4,"attributes":{"POSITION":0,"NORMAL":1,"TEXCOORD_0":2},"indices":3,"material":0}]},{"primitives":[{"mode":4,"attributes":{"POSITION":4,"NORMAL":5,"TEXCOORD_0":6},"indices":7,"material":0}]},{"primitives":[{"mode":4,"attributes":{"POSITION":8,"NORMAL":9,"TEXCOORD_0":10},"indices":11,"material":0}]},{"primitives":[{"mode":4,"attributes":{"POSITION":12,"NORMAL":13,"TEXCOORD_0":14},"indices":15,"material":0}]},{"primitives":[{"mode":4,"attributes":{"POSITION":16,"NORMAL":17,"TEXCOORD_0":18},"indices":19,"material":0}]},{"primitives":[{"mode":4,"attributes":{"POSITION":20,"NORMAL":21,"TEXCOORD_0":22},"indices":23,"material":0}]},{"primitives":[{"mode":4,"attributes":{"POSITION":24,"NORMAL":25,"TEXCOORD_0":26},"indices":27,"material":1}]},{"primitives":[{"mode":4,"attributes":{"POSITION":28,"NORMAL":29,"TEXCOORD_0":30},"indices":31,"material":2}]},{"primitives":[{"mode":4,"attributes":{"POSITION":32,"NORMAL":33,"TEXCOORD_0":34},"indices":35,"material":3}]},{"primitives":[{"mode":4,"attributes":{"POSITION":36,"NORMAL":37,"TEXCOORD_0":38},"indices":39,"material":3}]},{"primitives":[{"mode":4,"attributes":{"POSITION":40,"NORMAL":41,"TEXCOORD_0":42},"indices":43,"material":3}]},{"primitives":[{"mode":4,"attributes":{"POSITION":44,"NORMAL":45,"TEXCOORD_0":46},"indices":47,"material":3}]},{"primitives":[{"mode":4,"attributes":{"POSITION":48,"NORMAL":49,"TEXCOORD_0":50},"indices":51,"material":3}]},{"primitives":[{"mode":4,"attributes":{"POSITION":52,"NORMAL":53,"TEXCOORD_0":54},"indices":55,"material":3}]},{"primitives":[{"mode":4,"attributes":{"POSITION":56,"NORMAL":57,"TEXCOORD_0":58},"indices":59,"material":3}]},{"primitives":[{"mode":4,"attributes":{"POSITION":60,"NORMAL":61,"TEXCOORD_0":62},"indices":63,"material":3}]},{"primitives":[{"mode":4,"attributes":{"POSITION":64,"NORMAL":65,"TEXCOORD_0":66},"indices":67,"material":3}]},{"primitives":[{"mode":4,"attributes":{"POSITION":68,"NORMAL":69,"TEXCOORD_0":70},"indices":71,"material":3}]}],"animations":[{"name":"shot_fired","samplers":[{"input":72,"output":73,"interpolation":"LINEAR"},{"input":74,"output":75,"interpolation":"LINEAR"},{"input":76,"output":77,"interpolation":"LINEAR"},{"input":78,"output":79,"interpolation":"LINEAR"},{"input":80,"output":81,"interpolation":"LINEAR"},{"input":82,"output":83,"interpolation":"LINEAR"},{"input":84,"output":85,"interpolation":"LINEAR"}],"channels":[{"sampler":0,"target":{"node":8,"path":"translation"}},{"sampler":1,"target":{"node":8,"path":"scale"}},{"sampler":2,"target":{"node":10,"path":"translation"}},{"sampler":3,"target":{"node":10,"path":"scale"}},{"sampler":4,"target":{"node":12,"path":"translation"}},{"sampler":5,"target":{"node":25,"path":"rotation"}},{"sampler":6,"target":{"node":25,"path":"translation"}}]},{"name":"reload","samplers":[{"input":86,"output":87,"interpolation":"LINEAR"},{"input":88,"output":89,"interpolation":"LINEAR"},{"input":90,"output":91,"interpolation":"LINEAR"},{"input":92,"output":93,"interpolation":"LINEAR"},{"input":94,"output":95,"interpolation":"LINEAR"},{"input":96,"output":97,"interpolation":"LINEAR"},{"input":98,"output":99,"interpolation":"LINEAR"},{"input":100,"output":101,"interpolation":"LINEAR"},{"input":102,"output":103,"interpolation":"LINEAR"}],"channels":[{"sampler":0,"target":{"node":8,"path":"translation"}},{"sampler":1,"target":{"node":8,"path":"scale"}},{"sampler":2,"target":{"node":3,"path":"translation"}},{"sampler":3,"target":{"node":10,"path":"translation"}},{"sampler":4,"target":{"node":10,"path":"scale"}},{"sampler":5,"target":{"node":12,"path":"rotation"}},{"sampler":6,"target":{"node":12,"path":"translation"}},{"sampler":7,"target":{"node":25,"path":"rotation"}},{"sampler":8,"target":{"node":25,"path":"translation"}}]}]}