{"asset":{"version":"2.0","generator":"Blockbench 4.12.3 glTF exporter"},"scenes":[{"nodes":[21],"name":"blockbench_export"}],"scene":0,"nodes":[{"translation":[0.3125,0,-0.125],"name":"cube","mesh":0},{"translation":[0.4375,0.0625,-0.125],"name":"cube","mesh":1},{"name":"left-back","children":[0,1]},{"translation":[0.4375,0.0625,-0.3125],"name":"cube","mesh":2},{"translation":[0.3125,0,-0.3125],"name":"cube","mesh":3},{"name":"left-front","children":[3,4]},{"translation":[-0.125,0,-0.125],"name":"cube","mesh":4},{"translation":[0,0.0625,-0.125],"name":"cube","mesh":5},{"name":"right-back","children":[6,7]},{"translation":[0,0.0625,-0.3125],"name":"cube","mesh":6},{"translation":[-0.125,0,-0.3125],"name":"cube","mesh":7},{"name":"right-front","children":[9,10]},{"name":"legs","children":[2,5,8,11]},{"translation":[0,0.0625,0.375],"name":"cube","mesh":8},{"translation":[0,0,0.5],"name":"cube","mesh":9},{"name":"tail","children":[13,14]},{"translation":[0,0.0625,-0.3125],"name":"cube","mesh":10},{"name":"head","children":[16]},{"translation":[0,0.0625,0],"name":"cube","mesh":11},{"name":"body","children":[18]},{"name":"plugawiec","children":[12,15,17,19]},{"children":[20]}],"bufferViews":[{"buffer":0,"byteOffset":0,"byteLength":288,"target":34962,"byteStride":12},{"buffer":0,"byteOffset":288,"byteLength":288,"target":34962,"byteStride":12},{"buffer":0,"byteOffset":576,"byteLength":192,"target":34962,"byteStride":8},{"buffer":0,"byteOffset":768,"byteLength":72,"target":34963},{"buffer":0,"byteOffset":840,"byteLength":288,"target":34962,"byteStride":12},{"buffer":0,"byteOffset":1128,"byteLength":288,"target":34962,"byteStride":12},{"buffer":0,"byteOffset":1416,"byteLength":192,"target":34962,"byteStride":8},{"buffer":0,"byteOffset":1608,"byteLength":72,"target":34963},{"buffer":0,"byteOffset":1680,"byteLength":288,"target":34962,"byteStride":12},{"buffer":0,"byteOffset":1968,"byteLength":288,"target":34962,"byteStride":12},{"buffer":0,"byteOffset":2256,"byteLength":192,"target":34962,"byteStride":8},{"buffer":0,"byteOffset":2448,"byteLength":72,"target":34963},{"buffer":0,"byteOffset":2520,"byteLength":288,"target":34962,"byteStride":12},{"buffer":0,"byteOffset":2808,"byteLength":288,"target":34962,"byteStride":12},{"buffer":0,"byteOffset":3096,"byteLength":192,"target":34962,"byteStride":8},{"buffer":0,"byteOffset":3288,"byteLength":72,"target":34963},{"buffer":0,"byteOffset":3360,"byteLength":288,"target":34962,"byteStride":12},{"buffer":0,"byteOffset":3648,"byteLength":288,"target":34962,"byteStride":12},{"buffer":0,"byteOffset":3936,"byteLength":192,"target":34962,"byteStride":8},{"buffer":0,"byteOffset":4128,"byteLength":72,"target":34963},{"buffer":0,"byteOffset":4200,"byteLength":288,"target":34962,"byteStride":12},{"buffer":0,"byteOffset":4488,"byteLength":288,"target":34962,"byteStride":12},{"buffer":0,"byteOffset":4776,"byteLength":192,"target":34962,"byteStride":8},{"buffer":0,"byteOffset":4968,"byteLength":72,"target":34963},{"buffer":0,"byteOffset":5040,"byteLength":288,"target":34962,"byteStride":12},{"buffer":0,"byteOffset":5328,"byteLength":288,"target":34962,"byteStride":12},{"buffer":0,"byteOffset":5616,"byteLength":192,"target":34962,"byteStride":8},{"buffer":0,"byteOffset":5808,"byteLength":72,"target":34963},{"buffer":0,"byteOffset":5880,"byteLength":288,"target":34962,"byteStride":12},{"buffer":0,"byteOffset":6168,"byteLength":288,"target":34962,"byteStride":12},{"buffer":0,"byteOffset":6456,"byteLength":192,"target":34962,"byteStride":8},{"buffer":0,"byteOffset":6648,"byteLength":72,"target":34963},{"buffer":0,"byteOffset":6720,"byteLength":288,"target":34962,"byteStride":12},{"buffer":0,"byteOffset":7008,"byteLength":288,"target":34962,"byteStride":12},{"buffer":0,"byteOffset":7296,"byteLength":192,"target":34962,"byteStride":8},{"buffer":0,"byteOffset":7488,"byteLength":72,"target":34963},{"buffer":0,"byteOffset":7560,"byteLength":288,"target":34962,"byteStride":12},{"buffer":0,"byteOffset":7848,"byteLength":288,"target":34962,"byteStride":12},{"buffer":0,"byteOffset":8136,"byteLength":192,"target":34962,"byteStride":8},{"buffer":0,"byteOffset":8328,"byteLength":72,"target":34963},{"buffer":0,"byteOffset":8400,"byteLength":288,"target":34962,"byteStride":12},{"buffer":0,"byteOffset":8688,"byteLength":288,"target":34962,"byteStride":12},{"buffer":0,"byteOffset":8976,"byteLength":192,"target":34962,"byteStride":8},{"buffer":0,"byteOffset":9168,"byteLength":72,"target":34963},{"buffer":0,"byteOffset":9240,"byteLength":288,"target":34962,"byteStride":12},{"buffer":0,"byteOffset":9528,"byteLength":288,"target":34962,"byteStride":12},{"buffer":0,"byteOffset":9816,"byteLength":192,"target":34962,"byteStride":8},{"buffer":0,"byteOffset":10008,"byteLength":72,"target":34963},{"buffer":0,"byteOffset":10080,"byteLength":16},{"buffer":0,"byteOffset":10096,"byteLength":64},{"buffer":0,"byteOffset":10160,"byteLength":16},{"buffer":0,"byteOffset":10176,"byteLength":64},{"buffer":0,"byteOffset":10240,"byteLength":12},{"buffer":0,"byteOffset":10252,"byteLength":48},{"buffer":0,"byteOffset":10300,"byteLength":12},{"buffer":0,"byteOffset":10312,"byteLength":48},{"buffer":0,"byteOffset":10360,"byteLength":32},{"buffer":0,"byteOffset":10392,"byteLength":128},{"buffer":0,"byteOffset":10520,"byteLength":32},{"buffer":0,"byteOffset":10552,"byteLength":128},{"buffer":0,"byteOffset":10680,"byteLength":4},{"buffer":0,"byteOffset":10684,"byteLength":12},{"buffer":0,"byteOffset":10696,"byteLength":32},{"buffer":0,"byteOffset":10728,"byteLength":128},{"buffer":0,"byteOffset":10856,"byteLength":20},{"buffer":0,"byteOffset":10876,"byteLength":80},{"buffer":0,"byteOffset":10956,"byteLength":20},{"buffer":0,"byteOffset":10976,"byteLength":80},{"buffer":0,"byteOffset":11056,"byteLength":20},{"buffer":0,"byteOffset":11076,"byteLength":80},{"buffer":0,"byteOffset":11156,"byteLength":20},{"buffer":0,"byteOffset":11176,"byteLength":80},{"buffer":0,"byteOffset":11256,"byteLength":20},{"buffer":0,"byteOffset":11276,"byteLength":80},{"buffer":0,"byteOffset":11356,"byteLength":12},{"buffer":0,"byteOffset":11368,"byteLength":48},{"buffer":0,"byteOffset":11416,"byteLength":12},{"buffer":0,"byteOffset":11428,"byteLength":48}],"buffers":[{"byteLength":11476,"uri":"data:application/octet-stream;base64,"}],"accessors":[{"bufferView":0,"componentType":5126,"count":24,"max":[0,0.0625,0.25],"min":[-0.0625,0,0.1875],"type":"VEC3"},{"bufferView":1,"componentType":5126,"count":24,"max":[1,1,1],"min":[-1,-1,-1],"type":"VEC3"},{"bufferView":2,"componentType":5126,"count":24,"max":[0.21875,0.5625],"min":[0.03125,0.53125],"type":"VEC2"},{"bufferView":3,"componentType":5123,"count":36,"max":[23],"min":[0],"type":"SCALAR"},{"bufferView":4,"componentType":5126,"count":24,"max":[-0.125,0.0625,0.25],"min":[-0.3125,0,0.1875],"type":"VEC3"},{"bufferView":5,"componentType":5126,"count":24,"max":[1,1,1],"min":[-1,-1,-1],"type":"VEC3"},{"bufferView":6,"componentType":5126,"count":24,"max":[0.59375,0.5625],"min":[0,0],"type":"VEC2"},{"bufferView":7,"componentType":5123,"count":36,"max":[23],"min":[0],"type":"SCALAR"},{"bufferView":8,"componentType":5126,"count":24,"max":[-0.125,0.0625,0.25],"min":[-0.3125,0,0.1875],"type":"VEC3"},{"bufferView":9,"componentType":5126,"count":24,"max":[1,1,1],"min":[-1,-1,-1],"type":"VEC3"},{"bufferView":10,"componentType":5126,"count":24,"max":[0.59375,0.5625],"min":[0.125,0.03125],"type":"VEC2"},{"bufferView":11,"componentType":5123,"count":36,"max":[23],"min":[0],"type":"SCALAR"},{"bufferView":12,"componentType":5126,"count":24,"max":[0,0.0625,0.25],"min":[-0.0625,0,0.1875],"type":"VEC3"},{"bufferView":13,"componentType":5126,"count":24,"max":[1,1,1],"min":[-1,-1,-1],"type":"VEC3"},{"bufferView":14,"componentType":5126,"count":24,"max":[0.40625,0.5625],"min":[0.21875,0.53125],"type":"VEC2"},{"bufferView":15,"componentType":5123,"count":36,"max":[23],"min":[0],"type":"SCALAR"},{"bufferView":16,"componentType":5126,"count":24,"max":[-0.125,0.0625,0.25],"min":[-0.1875,0,0.1875],"type":"VEC3"},{"bufferView":17,"componentType":5126,"count":24,"max":[1,1,1],"min":[-1,-1,-1],"type":"VEC3"},{"bufferView":18,"componentType":5126,"count":24,"max":[0.5625,0.59375],"min":[0,0.46875],"type":"VEC2"},{"bufferView":19,"componentType":5123,"count":36,"max":[23],"min":[0],"type":"SCALAR"},{"bufferView":20,"componentType":5126,"count":24,"max":[-0.125,0.0625,0.25],"min":[-0.3125,0,0.1875],"type":"VEC3"},{"bufferView":21,"componentType":5126,"count":24,"max":[1,1,1],"min":[-1,-1,-1],"type":"VEC3"},{"bufferView":22,"componentType":5126,"count":24,"max":[0.59375,0.5625],"min":[0.21875,0.125],"type":"VEC2"},{"bufferView":23,"componentType":5123,"count":36,"max":[23],"min":[0],"type":"SCALAR"},{"bufferView":24,"componentType":5126,"count":24,"max":[-0.125,0.0625,0.25],"min":[-0.3125,0,0.1875],"type":"VEC3"},{"bufferView":25,"componentType":5126,"count":24,"max":[1,1,1],"min":[-1,-1,-1],"type":"VEC3"},{"bufferView":26,"componentType":5126,"count":24,"max":[0.59375,0.59375],"min":[0.0625,0.21875],"type":"VEC2"},{"bufferView":27,"componentType":5123,"count":36,"max":[23],"min":[0],"type":"SCALAR"},{"bufferView":28,"componentType":5126,"count":24,"max":[-0.125,0.0625,0.25],"min":[-0.1875,0,0.1875],"type":"VEC3"},{"bufferView":29,"componentType":5126,"count":24,"max":[1,1,1],"min":[-1,-1,-1],"type":"VEC3"},{"bufferView":30,"componentType":5126,"count":24,"max":[0.3125,0.59375],"min":[0.125,0.5625],"type":"VEC2"},{"bufferView":31,"componentType":5123,"count":36,"max":[23],"min":[0],"type":"SCALAR"},{"bufferView":32,"componentType":5126,"count":24,"max":[0.125,0.0625,-0.0625],"min":[-0.125,-0.0625,-0.25],"type":"VEC3"},{"bufferView":33,"componentType":5126,"count":24,"max":[1,1,1],"min":[-1,-1,-1],"type":"VEC3"},{"bufferView":34,"componentType":5126,"count":24,"max":[0.5,0.5],"min":[0,0],"type":"VEC2"},{"bufferView":35,"componentType":5123,"count":36,"max":[23],"min":[0],"type":"SCALAR"},{"bufferView":36,"componentType":5126,"count":24,"max":[0.0625,0.0625,-0.125],"min":[-0.0625,0,-0.25],"type":"VEC3"},{"bufferView":37,"componentType":5126,"count":24,"max":[1,1,1],"min":[-1,-1,-1],"type":"VEC3"},{"bufferView":38,"componentType":5126,"count":24,"max":[0.5625,0.53125],"min":[0,0.3125],"type":"VEC2"},{"bufferView":39,"componentType":5123,"count":36,"max":[23],"min":[0],"type":"SCALAR"},{"bufferView":40,"componentType":5126,"count":24,"max":[0.125,0.0625,0.1875],"min":[-0.125,-0.0625,0],"type":"VEC3"},{"bufferView":41,"componentType":5126,"count":24,"max":[1,1,1],"min":[-1,-1,-1],"type":"VEC3"},{"bufferView":42,"componentType":5126,"count":24,"max":[0.53125,0.5],"min":[0.125,0.09375],"type":"VEC2"},{"bufferView":43,"componentType":5123,"count":36,"max":[23],"min":[0],"type":"SCALAR"},{"bufferView":44,"componentType":5126,"count":24,"max":[0.1875,0.125,0.1875],"min":[-0.1875,-0.0625,-0.1875],"type":"VEC3"},{"bufferView":45,"componentType":5126,"count":24,"max":[1,1,1],"min":[-1,-1,-1],"type":"VEC3"},{"bufferView":46,"componentType":5126,"count":24,"max":[0.375,0.375],"min":[0,0],"type":"VEC2"},{"bufferView":47,"componentType":5123,"count":36,"max":[23],"min":[0],"type":"SCALAR"},{"bufferView":48,"componentType":5126,"count":4,"max":[3.5],"min":[0],"type":"SCALAR"},{"bufferView":49,"componentType":5126,"count":4,"max":[0,0,0.06540312618017197,1],"min":[0,0,0,0.9978589415550232],"type":"VEC4"},{"bufferView":50,"componentType":5126,"count":4,"max":[2.5],"min":[0.5],"type":"SCALAR"},{"bufferView":51,"componentType":5126,"count":4,"max":[0,0.0014267617370933294,0.06538756191730499,1],"min":[-0.02181488461792469,0,0,0.997621476650238],"type":"VEC4"},{"bufferView":52,"componentType":5126,"count":3,"max":[2],"min":[1],"type":"SCALAR"},{"bufferView":53,"componentType":5126,"count":3,"max":[0,0,0,1],"min":[0,0,-0.06540312618017197,0.9978589415550232],"type":"VEC4"},{"bufferView":54,"componentType":5126,"count":3,"max":[3],"min":[1],"type":"SCALAR"},{"bufferView":55,"componentType":5126,"count":3,"max":[0,0,0,1],"min":[0,0,-0.06540312618017197,0.9978589415550232],"type":"VEC4"},{"bufferView":56,"componentType":5126,"count":8,"max":[3.5],"min":[0],"type":"SCALAR"},{"bufferView":57,"componentType":5126,"count":8,"max":[0,0.06540312618017197,0,0.9997619986534119],"min":[0,-0.06540312618017197,0,0.9978589415550232],"type":"VEC4"},{"bufferView":58,"componentType":5126,"count":8,"max":[3.5],"min":[0],"type":"SCALAR"},{"bufferView":59,"componentType":5126,"count":8,"max":[0.02181488461792469,0,0,1],"min":[0,0,0,0.9997619986534119],"type":"VEC4"},{"bufferView":60,"componentType":5126,"count":1,"max":[1],"min":[1],"type":"SCALAR"},{"bufferView":61,"componentType":5126,"count":1,"max":[0,0,0],"min":[0,0,0],"type":"VEC3"},{"bufferView":62,"componentType":5126,"count":8,"max":[3.5],"min":[0],"type":"SCALAR"},{"bufferView":63,"componentType":5126,"count":8,"max":[0,0,0,1],"min":[-0.04361938685178757,0,0,0.9990482330322266],"type":"VEC4"},{"bufferView":64,"componentType":5126,"count":5,"max":[0.5],"min":[0],"type":"SCALAR"},{"bufferView":65,"componentType":5126,"count":5,"max":[5.341834374964865e-18,0.08715574443340302,0,-0.9961947202682495],"min":[0,-0.08715574443340302,-0.04361938685178757,-1],"type":"VEC4"},{"bufferView":66,"componentType":5126,"count":5,"max":[0.5],"min":[0],"type":"SCALAR"},{"bufferView":67,"componentType":5126,"count":5,"max":[0,0.08715574443340302,0.03982449695467949,1],"min":[-0.021463019773364067,-0.08715574443340302,0,0.9961947202682495],"type":"VEC4"},{"bufferView":68,"componentType":5126,"count":5,"max":[0.5],"min":[0],"type":"SCALAR"},{"bufferView":69,"componentType":5126,"count":5,"max":[0,0.08715574443340302,0,1],"min":[0,-0.08715574443340302,-0.04361938685178757,0.9961947202682495],"type":"VEC4"},{"bufferView":70,"componentType":5126,"count":5,"max":[0.5],"min":[0],"type":"SCALAR"},{"bufferView":71,"componentType":5126,"count":5,"max":[0,0.08715574443340302,0,1],"min":[0,-0.08715574443340302,-0.04361938685178757,0.9961947202682495],"type":"VEC4"},{"bufferView":72,"componentType":5126,"count":5,"max":[0.5],"min":[0],"type":"SCALAR"},{"bufferView":73,"componentType":5126,"count":5,"max":[0,0.04361938685178757,0,0.9990482330322266],"min":[0,-0.04361938685178757,0,0.9990482330322266],"type":"VEC4"},{"bufferView":74,"componentType":5126,"count":3,"max":[0.5],"min":[0],"type":"SCALAR"},{"bufferView":75,"componentType":5126,"count":3,"max":[0,0.04361938685178757,0,0.9990482330322266],"min":[0,-0.04361938685178757,0,0.9990482330322266],"type":"VEC4"},{"bufferView":76,"componentType":5126,"count":3,"max":[0.5],"min":[0],"type":"SCALAR"},{"bufferView":77,"componentType":5126,"count":3,"max":[0,0.04361938685178757,0,0.9990482330322266],"min":[0,-0.04361938685178757,0,0.9990482330322266],"type":"VEC4"}],"materials":[{"pbrMetallicRoughness":{"metallicFactor":0,"roughnessFactor":1,"baseColorTexture":{"index":0}},"alphaMode":"MASK","alphaCutoff":0.05,"doubleSided":true}],"textures":[{"sampler":0,"source":0,"name":"Default.png"}],"samplers":[{"magFilter":9728,"minFilter":9728,"wrapS":33071,"wrapT":33071}],"images":[{"mimeType":"image/png","uri":"data:image/png;base64,"}],"meshes":[{"primitives":[{"mode":4,"attributes":{"POSITION":0,"NORMAL":1,"TEXCOORD_0":2},"indices":3,"material":0}]},{"primitives":[{"mode":4,"attributes":{"POSITION":4,"NORMAL":5,"TEXCOORD_0":6},"indices":7,"material":0}]},{"primitives":[{"mode":4,"attributes":{"POSITION":8,"NORMAL":9,"TEXCOORD_0":10},"indices":11,"material":0}]},{"primitives":[{"mode":4,"attributes":{"POSITION":12,"NORMAL":13,"TEXCOORD_0":14},"indices":15,"material":0}]},{"primitives":[{"mode":4,"attributes":{"POSITION":16,"NORMAL":17,"TEXCOORD_0":18},"indices":19,"material":0}]},{"primitives":[{"mode":4,"attributes":{"POSITION":20,"NORMAL":21,"TEXCOORD_0":22},"indices":23,"material":0}]},{"primitives":[{"mode":4,"attributes":{"POSITION":24,"NORMAL":25,"TEXCOORD_0":26},"indices":27,"material":0}]},{"primitives":[{"mode":4,"attributes":{"POSITION":28,"NORMAL":29,"TEXCOORD_0":30},"indices":31,"material":0}]},{"primitives":[{"mode":4,"attributes":{"POSITION":32,"NORMAL":33,"TEXCOORD_0":34},"indices":35,"material":0}]},{"primitives":[{"mode":4,"attributes":{"POSITION":36,"NORMAL":37,"TEXCOORD_0":38},"indices":39,"material":0}]},{"primitives":[{"mode":4,"attributes":{"POSITION":40,"NORMAL":41,"TEXCOORD_0":42},"indices":43,"material":0}]},{"primitives":[{"mode":4,"attributes":{"POSITION":44,"NORMAL":45,"TEXCOORD_0":46},"indices":47,"material":0}]}],"animations":[{"name":"idle","samplers":[{"input":48,"output":49,"interpolation":"LINEAR"},{"input":50,"output":51,"interpolation":"LINEAR"},{"input":52,"output":53,"interpolation":"LINEAR"},{"input":54,"output":55,"interpolation":"LINEAR"},{"input":56,"output":57,"interpolation":"LINEAR"},{"input":58,"output":59,"interpolation":"LINEAR"},{"input":60,"output":61,"interpolation":"LINEAR"},{"input":62,"output":63,"interpolation":"LINEAR"}],"channels":[{"sampler":0,"target":{"node":2,"path":"rotation"}},{"sampler":1,"target":{"node":5,"path":"rotation"}},{"sampler":2,"target":{"node":8,"path":"rotation"}},{"sampler":3,"target":{"node":11,"path":"rotation"}},{"sampler":4,"target":{"node":19,"path":"rotation"}},{"sampler":5,"target":{"node":17,"path":"rotation"}},{"sampler":6,"target":{"node":17,"path":"translation"}},{"sampler":7,"target":{"node":15,"path":"rotation"}}]},{"name":"walking","samplers":[{"input":64,"output":65,"interpolation":"LINEAR"},{"input":66,"output":67,"interpolation":"LINEAR"},{"input":68,"output":69,"interpolation":"LINEAR"},{"input":70,"output":71,"interpolation":"LINEAR"},{"input":72,"output":73,"interpolation":"LINEAR"},{"input":74,"output":75,"interpolation":"LINEAR"},{"input":76,"output":77,"interpolation":"LINEAR"}],"channels":[{"sampler":0,"target":{"node":2,"path":"rotation"}},{"sampler":1,"target":{"node":5,"path":"rotation"}},{"sampler":2,"target":{"node":8,"path":"rotation"}},{"sampler":3,"target":{"node":11,"path":"rotation"}},{"sampler":4,"target":{"node":19,"path":"rotation"}},{"sampler":5,"target":{"node":17,"path":"rotation"}},{"sampler":6,"target":{"node":15,"path":"rotation"}}]}]}