{"asset":{"version":"2.0","generator":"Blockbench 4.12.4 glTF exporter"},"scenes":[{"nodes":[15],"name":"blockbench_export"}],"scene":0,"nodes":[{"name":"ekran","mesh":0},{"translation":[0.109375,0.0625,0],"name":"cube","mesh":1},{"rotation":[0,0,-0.13052619222005157,0.9914448613738104],"translation":[0.06562500000000002,0.07968749999999994,0],"name":"cube","mesh":2},{"rotation":[-0.9914448613738104,-0.13052619222005157,-1.7412875018360037e-17,6.405315989143457e-17],"translation":[0.06562499999999999,0.22968749999999993,0],"name":"cube","mesh":3},{"translation":[0,-0.0625,0],"name":"gyatt","children":[1,2,3]},{"translation":[0,0.09375,0.0625],"name":"dol","mesh":4},{"translation":[0,0.28125,0.0625],"name":"gora","mesh":5},{"translation":[0,0.09375,0.0625],"name":"prawa-sciana","mesh":6},{"translation":[0,0.09375,-0.171875],"name":"lewa-sciana","mesh":7},{"translation":[0,-0.09375,0],"name":"ramka","children":[5,6,7,8]},{"translation":[0,0.09375,0],"name":"monitorer","children":[0,4,9]},{"translation":[-0.10000000000000003,0.03125,0.171875],"name":"cube","mesh":8},{"name":"kloc?","mesh":9},{"rotation":[0,0,0.7071067811865475,0.7071067811865476],"translation":[0.09843750000000001,0.037500000000000006,0.0875],"name":"cylinder","mesh":10},{"name":"konkuter","children":[11,12,13]},{"children":[10,14]}],"bufferViews":[{"buffer":0,"byteOffset":0,"byteLength":288,"target":34962,"byteStride":12},{"buffer":0,"byteOffset":288,"byteLength":288,"target":34962,"byteStride":12},{"buffer":0,"byteOffset":576,"byteLength":192,"target":34962,"byteStride":8},{"buffer":0,"byteOffset":768,"byteLength":12,"target":34963},{"buffer":0,"byteOffset":780,"byteLength":12,"target":34963},{"buffer":0,"byteOffset":792,"byteLength":48,"target":34963},{"buffer":0,"byteOffset":840,"byteLength":288,"target":34962,"byteStride":12},{"buffer":0,"byteOffset":1128,"byteLength":288,"target":34962,"byteStride":12},{"buffer":0,"byteOffset":1416,"byteLength":192,"target":34962,"byteStride":8},{"buffer":0,"byteOffset":1608,"byteLength":72,"target":34963},{"buffer":0,"byteOffset":1680,"byteLength":288,"target":34962,"byteStride":12},{"buffer":0,"byteOffset":1968,"byteLength":288,"target":34962,"byteStride":12},{"buffer":0,"byteOffset":2256,"byteLength":192,"target":34962,"byteStride":8},{"buffer":0,"byteOffset":2448,"byteLength":72,"target":34963},{"buffer":0,"byteOffset":2520,"byteLength":288,"target":34962,"byteStride":12},{"buffer":0,"byteOffset":2808,"byteLength":288,"target":34962,"byteStride":12},{"buffer":0,"byteOffset":3096,"byteLength":192,"target":34962,"byteStride":8},{"buffer":0,"byteOffset":3288,"byteLength":72,"target":34963},{"buffer":0,"byteOffset":3360,"byteLength":288,"target":34962,"byteStride":12},{"buffer":0,"byteOffset":3648,"byteLength":288,"target":34962,"byteStride":12},{"buffer":0,"byteOffset":3936,"byteLength":192,"target":34962,"byteStride":8},{"buffer":0,"byteOffset":4128,"byteLength":72,"target":34963},{"buffer":0,"byteOffset":4200,"byteLength":288,"target":34962,"byteStride":12},{"buffer":0,"byteOffset":4488,"byteLength":288,"target":34962,"byteStride":12},{"buffer":0,"byteOffset":4776,"byteLength":192,"target":34962,"byteStride":8},{"buffer":0,"byteOffset":4968,"byteLength":72,"target":34963},{"buffer":0,"byteOffset":5040,"byteLength":288,"target":34962,"byteStride":12},{"buffer":0,"byteOffset":5328,"byteLength":288,"target":34962,"byteStride":12},{"buffer":0,"byteOffset":5616,"byteLength":192,"target":34962,"byteStride":8},{"buffer":0,"byteOffset":5808,"byteLength":72,"target":34963},{"buffer":0,"byteOffset":5880,"byteLength":288,"target":34962,"byteStride":12},{"buffer":0,"byteOffset":6168,"byteLength":288,"target":34962,"byteStride":12},{"buffer":0,"byteOffset":6456,"byteLength":192,"target":34962,"byteStride":8},{"buffer":0,"byteOffset":6648,"byteLength":72,"target":34963},{"buffer":0,"byteOffset":6720,"byteLength":288,"target":34962,"byteStride":12},{"buffer":0,"byteOffset":7008,"byteLength":288,"target":34962,"byteStride":12},{"buffer":0,"byteOffset":7296,"byteLength":192,"target":34962,"byteStride":8},{"buffer":0,"byteOffset":7488,"byteLength":72,"target":34963},{"buffer":0,"byteOffset":7560,"byteLength":288,"target":34962,"byteStride":12},{"buffer":0,"byteOffset":7848,"byteLength":288,"target":34962,"byteStride":12},{"buffer":0,"byteOffset":8136,"byteLength":192,"target":34962,"byteStride":8},{"buffer":0,"byteOffset":8328,"byteLength":72,"target":34963},{"buffer":0,"byteOffset":8400,"byteLength":1440,"target":34962,"byteStride":12},{"buffer":0,"byteOffset":9840,"byteLength":1440,"target":34962,"byteStride":12},{"buffer":0,"byteOffset":11280,"byteLength":960,"target":34962,"byteStride":8},{"buffer":0,"byteOffset":12240,"byteLength":288,"target":34963}],"buffers":[{"byteLength":12528,"uri":"data:application/octet-stream;base64,"}],"accessors":[{"bufferView":0,"componentType":5126,"count":24,"max":[0.0625,0.1875,0.125],"min":[-0.09375,0,-0.109375],"type":"VEC3"},{"bufferView":1,"componentType":5126,"count":24,"max":[1,1,1],"min":[-1,-1,-1],"type":"VEC3"},{"bufferView":2,"componentType":5126,"count":24,"max":[0.9375,0.9375],"min":[0,0.1875],"type":"VEC2"},{"bufferView":3,"componentType":5123,"count":6,"max":[3],"min":[0],"type":"SCALAR"},{"bufferView":4,"componentType":5123,"count":6,"max":[7],"min":[4],"type":"SCALAR"},{"bufferView":5,"componentType":5123,"count":24,"max":[23],"min":[8],"type":"SCALAR"},{"bufferView":6,"componentType":5126,"count":24,"max":[0.046875,0.171875,0.09375],"min":[-0.03125,0.015625,-0.09375],"type":"VEC3"},{"bufferView":7,"componentType":5126,"count":24,"max":[1,1,1],"min":[-1,-1,-1],"type":"VEC3"},{"bufferView":8,"componentType":5126,"count":24,"max":[0.5625,0.75],"min":[0,0],"type":"VEC2"},{"bufferView":9,"componentType":5123,"count":36,"max":[23],"min":[0],"type":"SCALAR"},{"bufferView":10,"componentType":5126,"count":24,"max":[0.046875,0.171875,0.09375],"min":[-0.09375,0.015625,-0.09375],"type":"VEC3"},{"bufferView":11,"componentType":5126,"count":24,"max":[1,1,1],"min":[-1,-1,-1],"type":"VEC3"},{"bufferView":12,"componentType":5126,"count":24,"max":[0.5,0.5625],"min":[0,0],"type":"VEC2"},{"bufferView":13,"componentType":5123,"count":36,"max":[23],"min":[0],"type":"SCALAR"},{"bufferView":14,"componentType":5126,"count":24,"max":[0.046875,0.171875,0.09375],"min":[-0.0625,0.015625,-0.09375],"type":"VEC3"},{"bufferView":15,"componentType":5126,"count":24,"max":[1,1,1],"min":[-1,-1,-1],"type":"VEC3"},{"bufferView":16,"componentType":5126,"count":24,"max":[0.625,0.625],"min":[0.25,0],"type":"VEC2"},{"bufferView":17,"componentType":5123,"count":36,"max":[23],"min":[0],"type":"SCALAR"},{"bufferView":18,"componentType":5126,"count":24,"max":[0.0625,0.012500000186264515,0.0625],"min":[-0.125,-0.015625,-0.1875],"type":"VEC3"},{"bufferView":19,"componentType":5126,"count":24,"max":[1,1,1],"min":[-1,-1,-1],"type":"VEC3"},{"bufferView":20,"componentType":5126,"count":24,"max":[0.8125,0.5625],"min":[0,0],"type":"VEC2"},{"bufferView":21,"componentType":5123,"count":36,"max":[23],"min":[0],"type":"SCALAR"},{"bufferView":22,"componentType":5126,"count":24,"max":[0.0625,0.02812499925494194,0.0625],"min":[-0.125,0,-0.1875],"type":"VEC3"},{"bufferView":23,"componentType":5126,"count":24,"max":[1,1,1],"min":[-1,-1,-1],"type":"VEC3"},{"bufferView":24,"componentType":5126,"count":24,"max":[0.8125,0.625],"min":[0,0.125],"type":"VEC2"},{"bufferView":25,"componentType":5123,"count":36,"max":[23],"min":[0],"type":"SCALAR"},{"bufferView":26,"componentType":5126,"count":24,"max":[0.0625,0.1875,0.0625],"min":[-0.125,0,0.03125],"type":"VEC3"},{"bufferView":27,"componentType":5126,"count":24,"max":[1,1,1],"min":[-1,-1,-1],"type":"VEC3"},{"bufferView":28,"componentType":5126,"count":24,"max":[0.6875,0.75],"min":[0.1875,0],"type":"VEC2"},{"bufferView":29,"componentType":5123,"count":36,"max":[23],"min":[0],"type":"SCALAR"},{"bufferView":30,"componentType":5126,"count":24,"max":[0.0625,0.1875,0.078125],"min":[-0.125,0,0.046875],"type":"VEC3"},{"bufferView":31,"componentType":5126,"count":24,"max":[1,1,1],"min":[-1,-1,-1],"type":"VEC3"},{"bufferView":32,"componentType":5126,"count":24,"max":[0.6875,0.8125],"min":[0,0.375],"type":"VEC2"},{"bufferView":33,"componentType":5123,"count":36,"max":[23],"min":[0],"type":"SCALAR"},{"bufferView":34,"componentType":5126,"count":24,"max":[-0.046875,0.015625,-0.046875],"min":[-0.0625,0,-0.0625],"type":"VEC3"},{"bufferView":35,"componentType":5126,"count":24,"max":[1,1,1],"min":[-1,-1,-1],"type":"VEC3"},{"bufferView":36,"componentType":5126,"count":24,"max":[0.1875,0.1875],"min":[0,0],"type":"VEC2"},{"bufferView":37,"componentType":5123,"count":36,"max":[23],"min":[0],"type":"SCALAR"},{"bufferView":38,"componentType":5126,"count":24,"max":[0.078125,0.078125,0.15625],"min":[-0.15625,0,-0.15625],"type":"VEC3"},{"bufferView":39,"componentType":5126,"count":24,"max":[1,1,1],"min":[-1,-1,-1],"type":"VEC3"},{"bufferView":40,"componentType":5126,"count":24,"max":[0.625,0.4375],"min":[0,0],"type":"VEC2"},{"bufferView":41,"componentType":5123,"count":36,"max":[23],"min":[0],"type":"SCALAR"},{"bufferView":42,"componentType":5126,"count":120,"max":[0.012500000186264515,0.2593750059604645,0.012500000186264515],"min":[-0.012500000186264515,0.24062499403953552,-0.012500000186264515],"type":"VEC3"},{"bufferView":43,"componentType":5126,"count":120,"max":[1,1,1],"min":[-1,-1,-1],"type":"VEC3"},{"bufferView":44,"componentType":5126,"count":120,"max":[0.2912999987602234,0.26875001192092896],"min":[0.01875000074505806,0],"type":"VEC2"},{"bufferView":45,"componentType":5123,"count":144,"max":[119],"min":[0],"type":"SCALAR"}],"materials":[{"pbrMetallicRoughness":{"metallicFactor":0,"roughnessFactor":1},"alphaMode":"MASK","alphaCutoff":0.05,"doubleSided":true},{"pbrMetallicRoughness":{"metallicFactor":0,"roughnessFactor":1,"baseColorTexture":{"index":0}},"alphaMode":"MASK","alphaCutoff":0.05,"doubleSided":true},{"pbrMetallicRoughness":{"metallicFactor":0,"roughnessFactor":1,"baseColorTexture":{"index":1}},"alphaMode":"MASK","alphaCutoff":0.05,"doubleSided":true},{"pbrMetallicRoughness":{"metallicFactor":0,"roughnessFactor":1,"baseColorTexture":{"index":2}},"alphaMode":"MASK","alphaCutoff":0.05,"doubleSided":true},{"pbrMetallicRoughness":{"metallicFactor":0,"roughnessFactor":1,"baseColorTexture":{"index":3}},"alphaMode":"MASK","alphaCutoff":0.05,"doubleSided":true},{"pbrMetallicRoughness":{"metallicFactor":0,"roughnessFactor":1,"baseColorTexture":{"index":4}},"alphaMode":"MASK","alphaCutoff":0.05,"doubleSided":true},{"pbrMetallicRoughness":{"metallicFactor":0,"roughnessFactor":1,"baseColorTexture":{"index":5}},"alphaMode":"MASK","alphaCutoff":0.05,"doubleSided":true}],"textures":[{"sampler":0,"source":0,"name":"ekran"},{"sampler":1,"source":1,"name":"dupa"},{"sampler":2,"source":2,"name":"ramka"},{"sampler":3,"source":3,"name":"klocek-guzik"},{"sampler":4,"source":4,"name":"kloc"},{"sampler":5,"source":5,"name":"cylinder-guzik"}],"samplers":[{"magFilter":9728,"minFilter":9728,"wrapS":33071,"wrapT":33071},{"magFilter":9728,"minFilter":9728,"wrapS":33071,"wrapT":33071},{"magFilter":9728,"minFilter":9728,"wrapS":33071,"wrapT":33071},{"magFilter":9728,"minFilter":9728,"wrapS":33071,"wrapT":33071},{"magFilter":9728,"minFilter":9728,"wrapS":33071,"wrapT":33071},{"magFilter":9728,"minFilter":9728,"wrapS":33071,"wrapT":33071}],"images":[{"mimeType":"image/png","uri":"data:image/png;base64,"},{"mimeType":"image/png","uri":"data:image/png;base64,"},{"mimeType":"image/png","uri":"data:image/png;base64,"},{"mimeType":"image/png","uri":"data:image/png;base64,"},{"mimeType":"image/png","uri":"data:image/png;base64,"},{"mimeType":"image/png","uri":"data:image/png;base64,"}],"meshes":[{"primitives":[{"mode":4,"attributes":{"POSITION":0,"NORMAL":1,"TEXCOORD_0":2},"indices":3,"material":0},{"mode":4,"attributes":{"POSITION":0,"NORMAL":1,"TEXCOORD_0":2},"indices":4,"material":1},{"mode":4,"attributes":{"POSITION":0,"NORMAL":1,"TEXCOORD_0":2},"indices":5,"material":0}]},{"primitives":[{"mode":4,"attributes":{"POSITION":6,"NORMAL":7,"TEXCOORD_0":8},"indices":9,"material":2}]},{"primitives":[{"mode":4,"attributes":{"POSITION":10,"NORMAL":11,"TEXCOORD_0":12},"indices":13,"material":2}]},{"primitives":[{"mode":4,"attributes":{"POSITION":14,"NORMAL":15,"TEXCOORD_0":16},"indices":17,"material":2}]},{"primitives":[{"mode":4,"attributes":{"POSITION":18,"NORMAL":19,"TEXCOORD_0":20},"indices":21,"material":3}]},{"primitives":[{"mode":4,"attributes":{"POSITION":22,"NORMAL":23,"TEXCOORD_0":24},"indices":25,"material":3}]},{"primitives":[{"mode":4,"attributes":{"POSITION":26,"NORMAL":27,"TEXCOORD_0":28},"indices":29,"material":3}]},{"primitives":[{"mode":4,"attributes":{"POSITION":30,"NORMAL":31,"TEXCOORD_0":32},"indices":33,"material":3}]},{"primitives":[{"mode":4,"attributes":{"POSITION":34,"NORMAL":35,"TEXCOORD_0":36},"indices":37,"material":4}]},{"primitives":[{"mode":4,"attributes":{"POSITION":38,"NORMAL":39,"TEXCOORD_0":40},"indices":41,"material":5}]},{"primitives":[{"mode":4,"attributes":{"POSITION":42,"NORMAL":43,"TEXCOORD_0":44},"indices":45,"material":6}]}]}